<?xml version="1.0" encoding="utf-8"?>
<!-- Generator: Adobe Illustrator 27.0.0, SVG Export Plug-In . SVG Version: 6.00 Build 0)  -->
<svg version="1.1" id="Pictogram" xmlns="http://www.w3.org/2000/svg" xmlns:xlink="http://www.w3.org/1999/xlink" x="0px" y="0px"
	 viewBox="0 0 144 144" style="enable-background:new 0 0 144 144;" xml:space="preserve">
<style type="text/css">
	.st0{fill:none;}
</style>
<g>
	<ellipse cx="96.4" cy="23.1" rx="9" ry="9"/>
	<path d="M82,94.1L45.7,57.8c-2.3,2.3-3.4,5.2-3.4,8.2v26.6H16.6c-2.8,0-5.1,2.3-5.1,5.1c0,2.8,2.3,5.1,5.1,5.1h30.9
		c2.8,0,5.1-2.3,5.1-5.1V79.3l20.6,20.6v28.7c0,2.8,2.3,5.1,5.1,5.1s5.1-2.3,5.1-5.1V97.7C83.4,96.3,82.9,95,82,94.1z"/>
	<path d="M131.2,117.8l-1.9,1.9c-0.7,0.7-1.7,1.1-2.7,1.1c-1,0-2-0.4-2.7-1.1L86.8,82.4c0.5-0.9,0.7-2,0.6-3c0-0.1,0-0.3,0-0.4V37.8
		c0-5-4-9-9-9c-2.5,0-4.7,1-6.4,2.6L49.3,54.2c0,0,29.2,29.3,29.3,29.3c1.7,1.7,4.2,2,6.2,0.8l37.2,37.2c1.2,1.2,2.9,1.9,4.6,1.9
		c1.7,0,3.4-0.7,4.6-1.9l1.9-1.9L131.2,117.8z M79.9,67.6l-7.8-7.8l7.8-7.8V67.6z"/>
</g>
<rect class="st0" width="144" height="144"/>
</svg>
