<?xml version="1.0" encoding="UTF-8"?>
<svg xmlns="http://www.w3.org/2000/svg" xmlns:xlink="http://www.w3.org/1999/xlink" width="84px" height="74px" viewBox="0 0 294.84 336.98" version="1.1">
<defs>
<clipPath id="clip1">
  <path d="M 185 5 L 294.839844 5 L 294.839844 160 L 185 160 Z M 185 5 "/>
</clipPath>
<clipPath id="clip2">
  <path d="M 48 308 L 75 308 L 75 336.980469 L 48 336.980469 Z M 48 308 "/>
</clipPath>
<clipPath id="clip3">
  <path d="M 76 308 L 101 308 L 101 336.980469 L 76 336.980469 Z M 76 308 "/>
</clipPath>
<clipPath id="clip4">
  <path d="M 105 308 L 126 308 L 126 336.980469 L 105 336.980469 Z M 105 308 "/>
</clipPath>
<clipPath id="clip5">
  <path d="M 128 308 L 152 308 L 152 336.980469 L 128 336.980469 Z M 128 308 "/>
</clipPath>
<clipPath id="clip6">
  <path d="M 155 308 L 179 308 L 179 336.980469 L 155 336.980469 Z M 155 308 "/>
</clipPath>
<clipPath id="clip7">
  <path d="M 180 308 L 207 308 L 207 336.980469 L 180 336.980469 Z M 180 308 "/>
</clipPath>
<clipPath id="clip8">
  <path d="M 209 308 L 228 308 L 228 336.980469 L 209 336.980469 Z M 209 308 "/>
</clipPath>
<clipPath id="clip9">
  <path d="M 232 308 L 237 308 L 237 336.980469 L 232 336.980469 Z M 232 308 "/>
</clipPath>
<clipPath id="clip10">
  <path d="M 240 308 L 266 308 L 266 336.980469 L 240 336.980469 Z M 240 308 "/>
</clipPath>
</defs>
<g id="surface1">
<path style=" stroke:none;fill-rule:nonzero;fill:rgb(0%,27.799988%,30.999756%);fill-opacity:1;" d="M 117.695313 207.269531 C 116.324219 189.855469 101.761719 176.152344 83.996094 176.152344 C 65.328125 176.152344 50.191406 191.289063 50.191406 209.960938 C 50.191406 228.628906 65.328125 243.761719 83.996094 243.761719 C 84.980469 243.761719 85.957031 243.71875 86.917969 243.636719 C 86.851563 242.75 86.8125 241.851563 86.8125 240.945313 C 86.8125 239.945313 86.859375 238.953125 86.941406 237.976563 C 85.972656 238.078125 84.992188 238.128906 83.996094 238.128906 C 68.4375 238.128906 55.828125 225.515625 55.828125 209.960938 C 55.828125 194.402344 68.4375 181.789063 83.996094 181.789063 C 98.972656 181.789063 111.21875 193.472656 112.113281 208.222656 C 112.148438 208.796875 112.167969 209.375 112.167969 209.960938 C 112.167969 211.390625 112.0625 212.792969 111.855469 214.167969 C 110.261719 224.792969 102.738281 233.476563 92.761719 236.738281 C 92.554688 238.113281 92.449219 239.515625 92.449219 240.945313 C 92.449219 241.53125 92.464844 242.109375 92.5 242.683594 C 106.128906 239.152344 116.417969 227.335938 117.671875 212.929688 C 117.757813 211.949219 117.800781 210.960938 117.800781 209.960938 C 117.800781 209.054688 117.765625 208.15625 117.695313 207.269531 "/>
<path style=" stroke:none;fill-rule:nonzero;fill:rgb(0%,27.799988%,30.999756%);fill-opacity:1;" d="M 148.734375 242.683594 C 147.839844 257.433594 135.59375 269.117188 120.617188 269.117188 C 105.644531 269.117188 93.398438 257.433594 92.5 242.683594 C 92.464844 242.109375 92.449219 241.53125 92.449219 240.945313 C 92.449219 239.515625 92.554688 238.113281 92.761719 236.738281 C 94.351563 226.113281 101.878906 217.429688 111.855469 214.167969 C 112.0625 212.792969 112.167969 211.390625 112.167969 209.960938 C 112.167969 209.375 112.148438 208.796875 112.113281 208.222656 C 98.488281 211.753906 88.199219 223.570313 86.941406 237.976563 C 86.859375 238.953125 86.8125 239.945313 86.8125 240.945313 C 86.8125 241.851563 86.851563 242.75 86.917969 243.636719 C 88.289063 261.050781 102.855469 274.75 120.617188 274.75 C 138.382813 274.75 152.945313 261.050781 154.316406 243.636719 C 152.40625 243.472656 150.542969 243.152344 148.734375 242.683594 "/>
<path style=" stroke:none;fill-rule:nonzero;fill:rgb(0%,27.799988%,30.999756%);fill-opacity:1;" d="M 129.121094 208.222656 C 127.316406 207.753906 125.453125 207.429688 123.542969 207.269531 C 122.578125 207.183594 121.601563 207.144531 120.617188 207.144531 C 119.632813 207.144531 118.660156 207.183594 117.695313 207.269531 C 117.765625 208.15625 117.800781 209.054688 117.800781 209.960938 C 117.800781 210.960938 117.757813 211.949219 117.671875 212.929688 C 118.640625 212.828125 119.621094 212.777344 120.617188 212.777344 C 121.613281 212.777344 122.597656 212.828125 123.566406 212.929688 C 125.574219 213.136719 127.519531 213.558594 129.382813 214.167969 C 139.359375 217.429688 146.882813 226.113281 148.476563 236.738281 C 150.335938 237.347656 152.285156 237.765625 154.292969 237.976563 C 153.039063 223.570313 142.75 211.753906 129.121094 208.222656 "/>
<path style=" stroke:none;fill-rule:nonzero;fill:rgb(0%,27.799988%,30.999756%);fill-opacity:1;" d="M 160.1875 237.976563 C 159.21875 238.078125 158.234375 238.128906 157.238281 238.128906 C 156.246094 238.128906 155.261719 238.078125 154.292969 237.976563 C 152.285156 237.765625 150.335938 237.347656 148.476563 236.738281 C 138.496094 233.476563 130.972656 224.789063 129.382813 214.167969 C 127.519531 213.558594 125.574219 213.136719 123.566406 212.929688 C 124.820313 227.335938 135.109375 239.152344 148.734375 242.683594 C 150.542969 243.152344 152.40625 243.472656 154.316406 243.636719 C 155.28125 243.71875 156.253906 243.761719 157.238281 243.761719 C 158.226563 243.761719 159.199219 243.71875 160.164063 243.636719 C 160.09375 242.75 160.058594 241.851563 160.058594 240.945313 C 160.058594 239.945313 160.101563 238.953125 160.1875 237.976563 "/>
<path style=" stroke:none;fill-rule:nonzero;fill:rgb(0%,27.799988%,30.999756%);fill-opacity:1;" d="M 190.9375 207.269531 C 189.566406 189.855469 175.003906 176.152344 157.238281 176.152344 C 139.476563 176.152344 124.914063 189.855469 123.542969 207.269531 C 125.453125 207.429688 127.316406 207.753906 129.121094 208.222656 C 130.019531 193.472656 142.265625 181.789063 157.238281 181.789063 C 172.214844 181.789063 184.460938 193.472656 185.355469 208.222656 C 185.390625 208.796875 185.410156 209.375 185.410156 209.960938 C 185.410156 211.390625 185.304688 212.792969 185.097656 214.167969 C 183.507813 224.792969 175.980469 233.476563 166.003906 236.738281 C 165.796875 238.113281 165.691406 239.515625 165.691406 240.945313 C 165.691406 241.53125 165.710938 242.109375 165.742188 242.683594 C 179.371094 239.152344 189.660156 227.335938 190.914063 212.929688 C 191 211.949219 191.046875 210.960938 191.046875 209.960938 C 191.046875 209.054688 191.007813 208.15625 190.9375 207.269531 "/>
<path style=" stroke:none;fill-rule:nonzero;fill:rgb(0%,27.799988%,30.999756%);fill-opacity:1;" d="M 221.980469 242.683594 C 221.082031 257.433594 208.835938 269.117188 193.859375 269.117188 C 178.886719 269.117188 166.640625 257.433594 165.742188 242.683594 C 165.710938 242.109375 165.691406 241.53125 165.691406 240.945313 C 165.691406 239.515625 165.796875 238.113281 166.003906 236.738281 C 167.59375 226.113281 175.121094 217.429688 185.097656 214.167969 C 185.304688 212.792969 185.410156 211.390625 185.410156 209.960938 C 185.410156 209.375 185.390625 208.796875 185.355469 208.222656 C 171.730469 211.753906 161.441406 223.570313 160.1875 237.976563 C 160.101563 238.953125 160.058594 239.945313 160.058594 240.945313 C 160.058594 241.851563 160.09375 242.75 160.164063 243.636719 C 161.535156 261.050781 176.097656 274.75 193.859375 274.75 C 211.625 274.75 226.1875 261.050781 227.558594 243.636719 C 225.648438 243.472656 223.785156 243.152344 221.980469 242.683594 "/>
<path style=" stroke:none;fill-rule:nonzero;fill:rgb(0%,27.799988%,30.999756%);fill-opacity:1;" d="M 202.367188 208.222656 C 200.558594 207.753906 198.695313 207.429688 196.785156 207.269531 C 195.820313 207.183594 194.847656 207.144531 193.859375 207.144531 C 192.878906 207.144531 191.902344 207.183594 190.9375 207.269531 C 191.007813 208.15625 191.046875 209.054688 191.046875 209.960938 C 191.046875 210.960938 191 211.949219 190.914063 212.929688 C 191.882813 212.828125 192.867188 212.777344 193.859375 212.777344 C 194.855469 212.777344 195.839844 212.828125 196.808594 212.929688 C 198.816406 213.136719 200.765625 213.558594 202.625 214.167969 C 212.601563 217.429688 220.128906 226.113281 221.71875 236.738281 C 223.578125 237.347656 225.527344 237.765625 227.535156 237.976563 C 226.28125 223.570313 215.992188 211.753906 202.367188 208.222656 "/>
<path style=" stroke:none;fill-rule:nonzero;fill:rgb(0%,27.799988%,30.999756%);fill-opacity:1;" d="M 230.484375 176.152344 C 212.71875 176.152344 198.15625 189.855469 196.785156 207.269531 C 198.695313 207.429688 200.558594 207.753906 202.367188 208.222656 C 203.261719 193.472656 215.507813 181.789063 230.484375 181.789063 C 246.042969 181.789063 258.652344 194.402344 258.652344 209.960938 C 258.652344 225.515625 246.042969 238.128906 230.484375 238.128906 C 229.488281 238.128906 228.503906 238.078125 227.535156 237.976563 C 225.527344 237.765625 223.578125 237.347656 221.71875 236.738281 C 211.742188 233.476563 204.21875 224.789063 202.625 214.167969 C 200.765625 213.558594 198.816406 213.136719 196.808594 212.929688 C 198.0625 227.335938 208.351563 239.152344 221.980469 242.683594 C 223.785156 243.152344 225.648438 243.472656 227.558594 243.636719 C 228.523438 243.71875 229.496094 243.761719 230.484375 243.761719 C 249.152344 243.761719 264.289063 228.628906 264.289063 209.960938 C 264.289063 191.289063 249.152344 176.152344 230.484375 176.152344 "/>
<path style=" stroke:none;fill-rule:nonzero;fill:rgb(0%,27.799988%,30.999756%);fill-opacity:1;" d="M 135.042969 76.730469 L 143.84375 90.8125 L 130.089844 99.964844 L 145.839844 101.878906 L 145.035156 117.800781 L 157.230469 106.359375 L 169.78125 118 L 168.597656 101.808594 L 184.292969 99.8125 L 170.765625 90.875 L 179.496094 76.605469 L 163.324219 81.738281 L 157.234375 65.800781 L 150.980469 81.6875 L 135.042969 76.730469 "/>
<g clip-path="url(#clip1)" clip-rule="nonzero">
<path style=" stroke:none;fill-rule:nonzero;fill:rgb(0%,27.799988%,30.999756%);fill-opacity:1;" d="M 258.355469 95.417969 C 265.953125 95.191406 285.191406 97.132813 292.761719 103.089844 C 292.78125 103.105469 292.855469 103.15625 292.871094 103.171875 C 294.035156 104.035156 294.753906 103.523438 294.8125 102.492188 C 294.972656 97.074219 294.589844 88.128906 288.523438 77.753906 C 283.085938 68.449219 269.839844 52.703125 243.308594 53.292969 C 230.71875 53.570313 216.851563 59.128906 209.433594 55.421875 C 205.867188 53.640625 201.292969 50.601563 202.542969 43.710938 C 204.753906 31.503906 210.09375 18.949219 209.382813 12.582031 C 209.171875 10.710938 208.75 4.621094 200.125 5.152344 C 196.507813 5.375 194.660156 8.050781 194.300781 8.796875 C 194.273438 8.851563 194.25 8.898438 194.230469 8.929688 C 194.210938 8.949219 194.148438 9.039063 194.074219 9.148438 C 193.816406 9.527344 193.496094 9.996094 192.6875 10.179688 C 190.023438 10.777344 187.746094 11.816406 186.386719 12.433594 L 185.945313 12.632813 C 184.960938 13.070313 185.019531 13.742188 185.058594 13.9375 C 185.085938 14.066406 185.265625 14.699219 186.15625 14.699219 L 186.3125 14.699219 L 186.597656 14.695313 C 187.984375 14.695313 189.828125 14.957031 192.070313 15.46875 C 195.976563 16.367188 198.058594 19.484375 197.640625 23.808594 C 197.355469 26.777344 194.089844 35.746094 190.789063 43.3125 C 185.039063 56.507813 183.464844 61.5 186.992188 70.070313 C 193.097656 84.898438 208.109375 95.332031 224.019531 96.40625 C 229.925781 97.800781 233.238281 103.863281 234.515625 105.976563 C 235.324219 107.566406 236.078125 109.234375 236.503906 110.253906 C 237.34375 112.277344 237.109375 114.707031 236.621094 116.449219 C 235.832031 119.257813 224.375 148.550781 222.722656 150.777344 C 221.449219 152.488281 220.507813 153.644531 217.878906 153.894531 C 216.230469 154.050781 210.605469 154.328125 209.125 154.347656 C 206.019531 154.386719 203.363281 156.914063 203.363281 159.246094 L 223.515625 159.234375 C 227.464844 159.234375 228.234375 155.523438 230.609375 149.355469 C 231.941406 145.902344 238.617188 129.695313 240.8125 125.007813 C 242.480469 121.707031 243.910156 118.972656 244.679688 117.429688 C 244.6875 117.414063 244.703125 117.382813 244.703125 117.382813 C 244.703125 117.382813 244.710938 117.371094 244.726563 117.34375 C 244.835938 117.125 245.359375 116.082031 246.191406 114.308594 C 246.96875 112.652344 245.960938 108.503906 244.84375 105.835938 C 244.199219 104.625 240.191406 95.40625 234.070313 93.550781 C 241.390625 91.953125 252.378906 107.761719 253.386719 109.234375 C 253.617188 109.570313 253.839844 109.914063 254.046875 110.261719 C 257.351563 115.796875 257.667969 122.023438 257.65625 126.136719 C 257.648438 128.351563 257.214844 146.285156 257.085938 148.234375 C 256.953125 150.183594 256.648438 152.046875 254.90625 153.179688 C 252.929688 154.464844 247.503906 154.402344 244.859375 154.371094 C 241.46875 154.332031 238.960938 157.242188 238.960938 159.226563 L 259.742188 159.234375 C 263.878906 159.234375 264.144531 154.960938 264.144531 152.179688 C 264.144531 152.179688 264.046875 141.007813 264.207031 135.234375 C 264.371094 129.464844 265.660156 117.003906 265.957031 113.375 C 266.253906 109.746094 265.398438 109.0625 264.027344 106.175781 L 258.355469 95.417969 "/>
</g>
<path style=" stroke:none;fill-rule:nonzero;fill:rgb(0%,27.799988%,30.999756%);fill-opacity:1;" d="M 137.691406 22.097656 C 137.320313 21.566406 130.863281 17.164063 130.863281 17.164063 C 130.191406 16.726563 129.75 16.125 129.511719 15.371094 C 129.46875 15.238281 129.398438 14.960938 129.398438 14.960938 C 129.285156 14.308594 128.929688 13.636719 128.128906 13.03125 C 127.476563 12.539063 124.195313 11.367188 122.804688 10.890625 C 122.773438 10.882813 122.703125 10.859375 122.617188 10.835938 C 123.886719 9.394531 124.003906 9.050781 124.234375 7.171875 C 124.410156 5.714844 124.410156 3.925781 124.320313 2.652344 C 124.121094 -0.0976563 123.910156 -0.164063 121.386719 1.859375 C 118.601563 4.09375 117.601563 4.984375 116.820313 10.382813 C 116.691406 10.421875 116.570313 10.460938 116.460938 10.5 C 116.15625 8.210938 115.503906 7.410156 113.75 5.679688 C 106.488281 -1.484375 106.65625 -1.410156 106.355469 3.316406 C 106.117188 7.046875 106.1875 11.210938 109.566406 14.429688 C 111.855469 16.609375 110.929688 18.527344 110.515625 19.691406 C 110.105469 20.851563 108.726563 24.320313 108.757813 28.921875 C 108.769531 30.824219 107.035156 33.886719 105.28125 35.839844 C 93.386719 49.101563 85.542969 57.175781 81.855469 59.746094 C 80.007813 61.039063 78.070313 62.265625 76.195313 63.457031 C 71.6875 66.316406 67.027344 69.273438 63.351563 73.253906 C 58.34375 78.683594 54.472656 86.953125 53.722656 93.835938 C 53.253906 98.144531 53.410156 109.503906 53.503906 116.292969 C 53.539063 118.789063 54.992188 129.386719 52.4375 137.078125 C 49.859375 144.832031 46.207031 148.273438 34.570313 151.449219 C 29.59375 152.804688 19.265625 153.632813 8.632813 154.011719 C 6.449219 154.089844 -0.414063 154.011719 0.0195313 157.804688 C 0.207031 159.429688 4.34375 159.210938 6.304688 159.234375 L 33.847656 159.234375 C 46.324219 159.234375 54.886719 154.289063 59.953125 148.042969 C 65.367188 141.375 71.171875 129.539063 75.964844 126.050781 C 81.5625 129.929688 81.171875 139.804688 81.003906 143.238281 C 80.757813 148.277344 79.21875 154.632813 81.292969 157.472656 C 82.292969 158.84375 84.164063 159.226563 86.421875 159.234375 L 128.597656 159.234375 C 128.597656 159.234375 127.8125 156.304688 124.398438 154.578125 C 122.015625 153.375 116.929688 152.476563 111.417969 152.671875 C 108.984375 152.757813 98.488281 153.394531 96.300781 153.429688 C 94.109375 153.464844 92.292969 153.121094 91.269531 152.066406 C 90.246094 151.007813 89.859375 149.210938 90.085938 145.796875 C 90.148438 144.910156 90.203125 143.894531 90.261719 142.785156 C 91.492188 124.773438 96.160156 113.347656 96.734375 105.304688 C 96.953125 102.261719 96.023438 97.195313 94.855469 94.691406 C 95.226563 94.269531 95.613281 93.832031 95.96875 93.425781 L 97.074219 92.1875 C 97.128906 92.117188 101.6875 86.695313 105.710938 82.023438 C 105.539063 81.851563 98.597656 74.785156 101.222656 68.554688 C 101.617188 74.925781 107.574219 78.691406 109.265625 80.71875 L 110.742188 82.183594 C 113.121094 84.542969 116.726563 87.941406 117.464844 88.847656 C 118.890625 90.535156 119.628906 92.371094 119.988281 94.074219 C 120.3125 96.789063 117.945313 98.742188 115.636719 98.375 C 116.597656 99.5625 118.054688 100.421875 119.730469 100.359375 C 119.785156 100.355469 119.96875 100.34375 119.980469 100.34375 C 120.644531 100.28125 121.335938 100.074219 122.042969 99.6875 C 122.042969 99.6875 122.046875 99.683594 122.050781 99.683594 C 122.21875 99.589844 122.390625 99.488281 122.5625 99.375 C 122.914063 99.148438 123.242188 98.90625 123.519531 98.628906 C 123.535156 98.613281 123.550781 98.601563 123.566406 98.589844 C 126.113281 95.992188 125.464844 91.40625 124.363281 89.023438 C 123.171875 86.445313 113.753906 72.515625 113.753906 72.515625 C 116 69.359375 118.089844 65.761719 119.636719 63.101563 L 120.007813 62.464844 C 122.675781 57.882813 122.234375 52.890625 121.910156 49.246094 C 121.910156 49.246094 121.464844 45.628906 120.679688 37.9375 C 119.953125 30.835938 121.441406 29.570313 125.695313 28.800781 C 128 28.382813 132.996094 28.089844 135.304688 27.664063 C 137.976563 27.175781 138.222656 22.847656 137.691406 22.097656 "/>
<g clip-path="url(#clip2)" clip-rule="nonzero">
<path style=" stroke:none;fill-rule:nonzero;fill:rgb(0%,27.799988%,30.999756%);fill-opacity:1;" d="M 61.226563 314.101563 L 56.515625 326.605469 L 65.902344 326.605469 Z M 53.234375 336.035156 C 53.109375 336.40625 52.863281 336.570313 52.414063 336.570313 L 48.886719 336.570313 C 48.558594 336.570313 48.4375 336.40625 48.4375 336.199219 C 48.4375 336.078125 48.476563 335.953125 48.519531 335.789063 L 58.605469 309.058594 C 58.726563 308.691406 58.972656 308.527344 59.382813 308.527344 L 63.15625 308.527344 C 63.605469 308.527344 63.8125 308.691406 63.976563 309.058594 L 73.9375 335.789063 C 73.980469 335.914063 74.0625 336.078125 74.0625 336.199219 C 74.0625 336.40625 73.9375 336.570313 73.570313 336.570313 L 69.960938 336.570313 C 69.511719 336.570313 69.265625 336.40625 69.140625 336.035156 L 67.050781 330.296875 L 55.363281 330.296875 L 53.234375 336.035156 "/>
</g>
<g clip-path="url(#clip3)" clip-rule="nonzero">
<path style=" stroke:none;fill-rule:nonzero;fill:rgb(0%,27.799988%,30.999756%);fill-opacity:1;" d="M 95.667969 309.183594 C 95.667969 308.894531 95.914063 308.648438 96.160156 308.648438 L 99.769531 308.648438 C 100.015625 308.648438 100.261719 308.894531 100.261719 309.183594 L 100.261719 325.539063 C 100.261719 328.738281 99.359375 331.402344 97.636719 333.371094 C 95.585938 335.667969 92.386719 336.980469 88.289063 336.980469 C 84.230469 336.980469 81.03125 335.667969 78.980469 333.371094 C 77.257813 331.402344 76.355469 328.738281 76.355469 325.539063 L 76.355469 309.183594 C 76.355469 308.894531 76.5625 308.648438 76.847656 308.648438 L 80.414063 308.648438 C 80.703125 308.648438 80.949219 308.894531 80.949219 309.183594 L 80.949219 325.050781 C 80.949219 327.46875 81.523438 329.3125 82.671875 330.625 C 83.984375 332.144531 85.867188 332.839844 88.246094 332.839844 C 90.707031 332.839844 92.59375 332.144531 93.90625 330.625 C 95.09375 329.3125 95.667969 327.46875 95.667969 325.050781 L 95.667969 309.183594 "/>
</g>
<g clip-path="url(#clip4)" clip-rule="nonzero">
<path style=" stroke:none;fill-rule:nonzero;fill:rgb(0%,27.799988%,30.999756%);fill-opacity:1;" d="M 105.425781 334.355469 C 105.136719 334.191406 105.054688 333.945313 105.21875 333.660156 L 106.65625 330.625 C 106.777344 330.378906 106.984375 330.257813 107.3125 330.460938 C 109.117188 331.566406 111.574219 333.042969 115.0625 333.042969 C 116.78125 333.042969 118.09375 332.636719 118.957031 331.976563 C 120.023438 331.199219 120.472656 330.050781 120.472656 328.820313 C 120.472656 326.9375 118.957031 325.867188 116.945313 325.089844 C 114.609375 324.148438 111.863281 323.695313 109.238281 322.21875 C 106.984375 320.949219 105.382813 319.1875 105.382813 316.027344 C 105.382813 313.734375 106.285156 311.765625 108.050781 310.410156 C 109.773438 309.058594 112.3125 308.28125 115.675781 308.28125 C 119.488281 308.28125 122.359375 309.304688 124.203125 310.328125 C 124.492188 310.492188 124.53125 310.738281 124.410156 311.027344 L 122.972656 314.019531 C 122.808594 314.308594 122.5625 314.390625 122.277344 314.226563 C 120.308594 313.078125 117.890625 312.257813 115.429688 312.257813 C 113.585938 312.257813 112.230469 312.667969 111.410156 313.363281 C 110.632813 313.980469 110.222656 314.800781 110.222656 315.824219 C 110.222656 317.628906 111.738281 318.570313 114.035156 319.351563 C 116.660156 320.292969 119.613281 320.742188 122.03125 322.300781 C 123.917969 323.492188 125.476563 325.417969 125.476563 328.453125 C 125.476563 331.199219 124.328125 333.332031 122.441406 334.808594 C 120.636719 336.242188 118.054688 336.980469 115.101563 336.980469 C 110.675781 336.980469 107.476563 335.625 105.425781 334.355469 "/>
</g>
<g clip-path="url(#clip5)" clip-rule="nonzero">
<path style=" stroke:none;fill-rule:nonzero;fill:rgb(0%,27.799988%,30.999756%);fill-opacity:1;" d="M 151.015625 308.648438 C 151.304688 308.648438 151.507813 308.894531 151.507813 309.183594 L 151.507813 312.214844 C 151.507813 312.503906 151.304688 312.707031 151.015625 312.707031 L 142.160156 312.707031 L 142.160156 336.078125 C 142.160156 336.363281 141.914063 336.570313 141.628906 336.570313 L 138.0625 336.570313 C 137.773438 336.570313 137.570313 336.363281 137.570313 336.078125 L 137.570313 312.707031 L 128.671875 312.707031 C 128.386719 312.707031 128.179688 312.503906 128.179688 312.214844 L 128.179688 309.183594 C 128.179688 308.894531 128.386719 308.648438 128.671875 308.648438 L 151.015625 308.648438 "/>
</g>
<g clip-path="url(#clip6)" clip-rule="nonzero">
<path style=" stroke:none;fill-rule:nonzero;fill:rgb(0%,27.799988%,30.999756%);fill-opacity:1;" d="M 160.40625 312.542969 L 160.40625 322.425781 L 167.046875 322.425781 C 168.8125 322.425781 170.203125 322.261719 171.351563 321.5625 C 172.542969 320.867188 173.359375 319.554688 173.359375 317.503906 C 173.359375 315.496094 172.621094 314.183594 171.433594 313.445313 C 170.328125 312.707031 168.933594 312.542969 167.414063 312.542969 Z M 171.515625 325.867188 L 178.363281 335.707031 C 178.609375 336.117188 178.691406 336.570313 178.117188 336.570313 L 174.140625 336.570313 C 173.691406 336.570313 173.402344 336.488281 173.15625 336.035156 L 166.554688 326.277344 L 160.40625 326.277344 L 160.40625 336.078125 C 160.40625 336.363281 160.160156 336.570313 159.914063 336.570313 L 156.304688 336.570313 C 156.058594 336.570313 155.8125 336.363281 155.8125 336.078125 L 155.8125 309.183594 C 155.8125 308.894531 156.058594 308.648438 156.304688 308.648438 L 167.824219 308.648438 C 170.53125 308.648438 172.910156 309.058594 174.757813 310.371094 C 176.804688 311.847656 178.035156 314.308594 178.035156 317.464844 C 178.035156 320.292969 176.929688 322.589844 174.839844 324.1875 C 173.773438 325.050781 172.703125 325.539063 171.515625 325.867188 "/>
</g>
<g clip-path="url(#clip7)" clip-rule="nonzero">
<path style=" stroke:none;fill-rule:nonzero;fill:rgb(0%,27.799988%,30.999756%);fill-opacity:1;" d="M 193.410156 314.101563 L 188.695313 326.605469 L 198.085938 326.605469 Z M 185.414063 336.035156 C 185.292969 336.40625 185.046875 336.570313 184.59375 336.570313 L 181.070313 336.570313 C 180.742188 336.570313 180.617188 336.40625 180.617188 336.199219 C 180.617188 336.078125 180.660156 335.953125 180.699219 335.789063 L 190.785156 309.058594 C 190.910156 308.691406 191.15625 308.527344 191.566406 308.527344 L 195.335938 308.527344 C 195.789063 308.527344 195.992188 308.691406 196.15625 309.058594 L 206.121094 335.789063 C 206.160156 335.914063 206.242188 336.078125 206.242188 336.199219 C 206.242188 336.40625 206.121094 336.570313 205.75 336.570313 L 202.144531 336.570313 C 201.691406 336.570313 201.445313 336.40625 201.324219 336.035156 L 199.234375 330.296875 L 187.546875 330.296875 L 185.414063 336.035156 "/>
</g>
<g clip-path="url(#clip8)" clip-rule="nonzero">
<path style=" stroke:none;fill-rule:nonzero;fill:rgb(0%,27.799988%,30.999756%);fill-opacity:1;" d="M 213.746094 308.648438 C 213.992188 308.648438 214.238281 308.894531 214.238281 309.183594 L 214.238281 332.511719 L 227.316406 332.511719 C 227.605469 332.511719 227.808594 332.757813 227.808594 333.003906 L 227.808594 336.078125 C 227.808594 336.363281 227.605469 336.570313 227.316406 336.570313 L 210.136719 336.570313 C 209.890625 336.570313 209.644531 336.363281 209.644531 336.078125 L 209.644531 309.183594 C 209.644531 308.894531 209.890625 308.648438 210.136719 308.648438 L 213.746094 308.648438 "/>
</g>
<g clip-path="url(#clip9)" clip-rule="nonzero">
<path style=" stroke:none;fill-rule:nonzero;fill:rgb(0%,27.799988%,30.999756%);fill-opacity:1;" d="M 236.378906 308.648438 C 236.621094 308.648438 236.867188 308.894531 236.867188 309.183594 L 236.867188 336.078125 C 236.867188 336.363281 236.621094 336.570313 236.378906 336.570313 L 232.769531 336.570313 C 232.523438 336.570313 232.277344 336.363281 232.277344 336.078125 L 232.277344 309.183594 C 232.277344 308.894531 232.523438 308.648438 232.769531 308.648438 L 236.378906 308.648438 "/>
</g>
<g clip-path="url(#clip10)" clip-rule="nonzero">
<path style=" stroke:none;fill-rule:nonzero;fill:rgb(0%,27.799988%,30.999756%);fill-opacity:1;" d="M 252.980469 314.101563 L 248.269531 326.605469 L 257.65625 326.605469 Z M 244.988281 336.035156 C 244.863281 336.40625 244.617188 336.570313 244.167969 336.570313 L 240.640625 336.570313 C 240.3125 336.570313 240.191406 336.40625 240.191406 336.199219 C 240.191406 336.078125 240.230469 335.953125 240.273438 335.789063 L 250.359375 309.058594 C 250.480469 308.691406 250.726563 308.527344 251.136719 308.527344 L 254.910156 308.527344 C 255.359375 308.527344 255.566406 308.691406 255.730469 309.058594 L 265.691406 335.789063 C 265.734375 335.914063 265.816406 336.078125 265.816406 336.199219 C 265.816406 336.40625 265.691406 336.570313 265.324219 336.570313 L 261.714844 336.570313 C 261.265625 336.570313 261.019531 336.40625 260.894531 336.035156 L 258.804688 330.296875 L 247.117188 330.296875 L 244.988281 336.035156 "/>
</g>
</g>
</svg>
